<?xml version="1.0" standalone="no"?>
<!DOCTYPE svg PUBLIC "-//W3C//DTD SVG 20010904//EN"
 "http://www.w3.org/TR/2001/REC-SVG-20010904/DTD/svg10.dtd">
<svg version="1.0" xmlns="http://www.w3.org/2000/svg"
 width="500.000000pt" height="500.000000pt" viewBox="0 0 500.000000 500.000000"
 preserveAspectRatio="xMidYMid meet">
<metadata>
Created by potrace 1.11, written by Peter Selinger 2001-2013
</metadata>
<g transform="translate(0.000000,500.000000) scale(0.100000,-0.100000)"
fill="#000000" stroke="none">
<path d="M1428 4913 c-19 -21 -176 -175 -347 -343 -172 -168 -401 -392 -509
-498 -108 -106 -281 -274 -384 -375 l-188 -182 0 -1008 0 -1009 109 -106 c60
-59 240 -235 401 -392 160 -157 372 -364 470 -460 98 -96 248 -244 333 -327
l156 -153 1034 0 1035 0 138 136 c77 74 273 266 437 427 164 161 361 353 437
427 75 74 208 204 294 288 l155 153 1 1014 0 1014 -104 103 c-57 57 -233 230
-392 385 -288 281 -538 526 -816 799 l-147 144 -1039 0 -1039 0 -35 -37z
m1202 -180 c119 -3 160 -7 160 -18 0 -5 5 -3 10 5 5 8 10 10 10 3 0 -6 8 -10
17 -9 9 2 44 -3 77 -10 34 -7 75 -14 91 -17 44 -7 141 -33 207 -56 31 -11 59
-17 62 -14 3 4 6 1 6 -5 0 -7 3 -11 8 -10 8 1 10 1 127 -45 44 -17 85 -34 90
-38 6 -4 44 -25 85 -47 96 -49 154 -82 160 -91 3 -4 12 -10 20 -14 15 -7 43
-24 64 -40 167 -120 330 -269 441 -402 44 -52 175 -232 175 -239 0 -3 13 -24
29 -48 16 -24 37 -61 47 -83 11 -22 21 -42 24 -45 12 -12 30 -51 30 -64 0 -8
4 -16 8 -18 14 -5 115 -274 126 -332 3 -14 7 -29 10 -34 5 -9 16 -57 21 -99 2
-12 6 -26 9 -31 3 -5 8 -29 10 -53 3 -24 8 -54 10 -67 23 -110 26 -432 5 -572
-4 -30 -10 -73 -13 -95 -3 -22 -8 -51 -11 -65 -15 -65 -18 -76 -20 -90 -2 -20
-53 -185 -67 -218 -6 -15 -12 -34 -14 -42 -2 -8 -7 -23 -13 -35 -42 -88 -104
-221 -105 -225 -2 -6 -107 -182 -118 -195 -4 -5 -40 -52 -78 -103 -99 -131
-207 -246 -322 -343 -177 -148 -289 -222 -483 -317 -121 -60 -181 -85 -200
-85 -8 0 -15 -3 -15 -7 0 -3 -26 -15 -57 -24 -32 -10 -58 -18 -58 -16 0 1 -18
-5 -40 -13 -57 -22 -242 -61 -340 -72 -70 -8 -107 -15 -118 -22 -6 -3 -7 -1
-3 5 5 9 1 10 -16 4 -24 -9 -334 -8 -403 1 -22 3 -60 8 -85 11 -46 6 -79 12
-127 22 -16 3 -37 7 -48 9 -26 4 -106 24 -125 32 -8 3 -22 7 -30 8 -29 4 -105
28 -114 37 -6 4 -20 8 -33 8 -13 0 -23 5 -23 12 0 6 -3 8 -6 5 -4 -3 -16 -1
-28 5 -11 7 -26 13 -33 14 -19 3 -204 94 -268 132 -53 30 -182 113 -210 134
-31 24 -106 83 -145 116 -69 58 -278 272 -266 272 3 0 -8 13 -22 28 -39 40
-63 72 -55 72 3 0 -4 9 -17 20 -13 11 -20 20 -16 20 4 0 1 7 -8 15 -21 21
-106 159 -106 173 0 5 -3 12 -8 14 -18 7 -176 363 -162 363 1 0 -8 24 -19 53
-11 28 -18 52 -15 52 4 0 2 6 -3 13 -6 6 -9 20 -8 30 2 9 -1 17 -6 17 -5 0 -8
3 -7 8 1 4 -2 25 -7 47 -5 22 -10 49 -11 60 -1 11 -3 20 -4 20 -2 0 -9 36 -14
80 -3 22 -8 58 -12 80 -12 70 -7 530 6 530 1 0 3 11 5 25 15 104 21 137 34
178 5 17 8 32 5 32 -3 0 0 8 5 18 6 11 12 30 15 43 11 51 15 66 36 124 12 33
24 67 27 75 4 8 7 17 7 20 1 3 7 15 14 27 6 12 13 31 15 42 2 11 6 23 10 27 3
4 25 45 48 93 23 47 48 92 56 99 7 7 13 18 13 23 0 9 116 188 129 199 3 3 19
23 36 45 65 88 219 246 325 335 41 34 85 71 98 81 12 11 24 19 27 19 5 0 98
62 105 71 9 11 195 114 260 144 36 17 67 32 70 35 6 6 30 12 48 13 6 0 12 4
12 8 0 5 18 13 40 17 3 0 29 10 58 21 28 11 52 18 52 16 0 -3 14 1 30 10 17 9
30 13 30 10 0 -4 6 -3 13 2 6 4 17 9 22 10 20 5 101 24 120 28 11 2 31 7 45
10 14 4 34 7 45 6 10 0 25 5 32 11 10 8 13 7 13 -3 0 -10 2 -11 8 -2 4 7 16
10 27 9 11 -2 24 -1 29 2 13 8 40 10 195 16 73 2 136 7 139 11 3 3 8 2 11 -2
3 -5 40 -9 81 -10z"/>
<path d="M2367 4284 c-3 -4 -48 -8 -99 -10 -111 -5 -213 -12 -213 -15 0 -1
-20 -3 -45 -4 -25 -2 -45 -4 -45 -5 0 -1 -16 -3 -35 -5 -19 -2 -51 -7 -70 -10
-77 -13 -96 -16 -120 -20 -71 -11 -92 -15 -175 -34 -49 -12 -101 -24 -115 -27
-14 -2 -34 -8 -45 -11 -20 -7 -27 -9 -62 -17 -10 -3 -19 -5 -20 -6 -2 -2 -6
-3 -10 -4 -5 -1 -42 -12 -83 -26 -41 -13 -79 -24 -85 -26 -5 -1 -26 -9 -46
-18 -20 -8 -39 -12 -43 -9 -3 4 -6 1 -6 -5 0 -7 -9 -12 -20 -12 -11 0 -20 -4
-20 -10 0 -5 -3 -9 -7 -9 -22 4 -30 -4 -42 -38 -8 -21 -18 -49 -24 -63 -6 -14
-11 -29 -13 -35 -1 -5 -8 -23 -15 -40 -7 -16 -11 -34 -10 -39 1 -4 -2 -13 -7
-20 -8 -9 -34 -86 -48 -141 -1 -5 -12 -46 -24 -90 -12 -44 -23 -90 -25 -102
-2 -11 -6 -30 -10 -42 -3 -11 -8 -33 -11 -48 -2 -16 -9 -48 -14 -73 -5 -25
-12 -61 -15 -80 -3 -19 -8 -48 -11 -65 -2 -16 -7 -50 -10 -75 -2 -25 -6 -61
-8 -80 -17 -147 -21 -229 -21 -480 0 -157 3 -297 7 -311 6 -21 27 -36 100 -72
119 -58 188 -87 188 -80 0 3 6 0 13 -6 8 -6 22 -12 33 -14 10 -2 26 -7 34 -10
32 -12 147 -46 175 -52 43 -9 60 -13 60 -16 0 -1 9 -3 20 -4 11 -1 38 -7 60
-13 22 -6 57 -14 79 -18 21 -3 48 -8 60 -10 44 -10 62 -13 96 -18 19 -3 46 -7
60 -10 51 -10 143 -21 250 -30 30 -3 55 -5 55 -6 0 -4 270 -21 323 -20 37 0
31 0 147 -3 l90 -2 3 -328 c1 -180 -1 -327 -5 -328 -31 -4 -153 -3 -153 1 0 3
-39 6 -88 7 -89 2 -197 9 -197 13 0 3 -39 7 -102 11 -29 2 -53 7 -53 11 0 4
-9 5 -20 3 -11 -2 -20 0 -20 4 0 4 -10 7 -22 6 -13 -1 -29 2 -36 8 -6 5 -12 7
-12 5 0 -5 -35 1 -122 22 -24 6 -54 13 -67 16 -14 3 -29 7 -33 10 -5 3 -24 8
-41 11 -18 3 -36 8 -42 13 -5 4 -34 13 -62 21 -29 7 -53 16 -53 21 0 4 -3 7
-7 6 -24 -6 -85 27 -98 53 -9 16 -13 29 -9 29 4 0 2 6 -3 13 -11 13 -45 109
-50 142 -2 10 -7 22 -11 25 -4 3 -8 14 -10 25 -6 42 -24 85 -33 80 -5 -4 -9
-2 -9 2 0 5 -8 9 -19 10 -27 2 -345 110 -389 131 -40 21 -70 19 -53 -2 6 -7
13 -30 16 -52 6 -46 13 -79 16 -79 1 0 3 -9 13 -60 2 -11 6 -27 9 -35 4 -8 9
-26 11 -40 7 -36 44 -174 55 -203 5 -14 7 -28 4 -31 -4 -3 -1 -6 5 -6 7 0 12
-7 12 -15 0 -26 64 -206 91 -257 5 -10 9 -24 9 -32 0 -7 10 -17 23 -21 12 -4
24 -8 27 -9 13 -4 127 -47 140 -53 8 -3 22 -7 30 -8 8 -2 61 -18 117 -37 56
-18 99 -30 97 -26 -3 4 11 1 31 -7 19 -9 46 -16 60 -17 14 -1 25 -6 25 -11 0
-4 4 -6 8 -3 5 3 24 1 43 -4 19 -5 48 -12 64 -14 17 -3 41 -8 55 -12 14 -3 39
-7 55 -9 33 -5 63 -10 127 -20 24 -4 59 -9 78 -11 19 -2 55 -6 80 -9 85 -9
165 -15 286 -19 67 -3 125 -6 130 -7 5 -1 11 -1 14 0 3 1 77 3 165 5 88 2 160
4 160 5 0 1 38 4 85 7 114 7 165 12 165 14 0 1 11 3 25 5 38 3 112 14 140 20
14 3 39 7 55 9 17 3 42 7 55 10 14 3 36 8 50 10 14 2 45 9 70 15 25 5 59 13
75 16 36 7 58 13 65 16 3 1 10 3 15 4 6 2 12 4 15 5 3 1 14 3 25 5 35 7 309
97 320 105 6 4 25 11 43 15 29 6 38 16 63 68 16 34 29 67 29 74 0 12 22 68 42
106 5 11 7 21 4 24 -3 3 0 15 6 27 7 11 13 26 14 31 8 32 15 57 33 118 11 37
17 67 14 67 -3 0 0 7 7 15 7 9 10 18 7 22 -4 3 -2 12 3 19 6 6 10 16 8 20 -1
5 1 23 5 39 8 33 16 68 23 103 2 12 7 34 10 50 5 27 11 62 18 117 2 17 7 55
11 85 4 30 9 69 10 85 11 112 16 193 20 282 2 56 6 107 10 113 3 5 2 10 -2 10
-10 0 -10 61 1 78 4 7 4 12 -1 12 -4 0 -9 44 -10 98 -4 186 -3 180 -34 202
-57 41 -241 122 -354 156 -27 8 -57 18 -65 21 -8 4 -19 8 -25 9 -5 1 -13 3
-17 4 -5 1 -11 3 -15 5 -5 1 -15 5 -23 8 -8 4 -28 9 -45 11 -16 2 -37 6 -45 9
-8 4 -28 9 -45 12 -37 7 -60 13 -60 15 0 1 -11 3 -25 5 -24 3 -48 8 -95 18
-12 3 -48 9 -80 13 -64 9 -74 10 -77 14 -2 1 -21 4 -43 5 -22 2 -54 6 -71 9
-30 5 -147 16 -214 21 -19 2 -35 4 -35 5 0 2 -214 10 -352 13 -67 2 -125 5
-128 8 -9 9 -11 559 -2 559 5 0 5 5 2 11 -4 6 -8 27 -9 48 l-1 37 125 -3 c112
-2 245 -9 245 -13 0 -1 107 -12 138 -13 9 -1 17 -4 17 -7 0 -3 15 -5 33 -6 17
0 50 -4 72 -8 22 -4 54 -10 70 -13 41 -7 59 -11 65 -14 3 -1 10 -3 15 -4 6 -2
12 -4 15 -5 9 -3 34 -8 75 -15 22 -4 45 -10 50 -13 6 -4 16 -7 23 -8 22 -4
217 -68 222 -73 3 -3 14 -7 24 -9 24 -4 46 -26 46 -45 0 -9 4 -17 8 -19 6 -2
65 -174 91 -267 5 -18 20 -29 59 -41 29 -10 52 -16 52 -14 0 2 12 -1 28 -7 15
-6 38 -13 52 -16 14 -2 27 -8 28 -14 2 -5 8 -7 13 -4 4 3 21 -1 37 -9 16 -8
33 -12 36 -8 4 3 10 2 14 -3 6 -8 43 -25 87 -40 41 -13 61 -18 64 -17 9 3 10
37 2 42 -5 3 -11 25 -14 50 -9 66 -18 111 -35 173 -6 20 -8 38 -5 41 3 3 1 12
-5 19 -7 7 -14 31 -18 53 -3 21 -10 46 -14 54 -4 8 -8 18 -9 23 -1 4 -1 8 -2
10 -1 3 -7 29 -12 52 -3 11 -19 58 -36 105 -17 47 -31 86 -31 88 0 2 -22 57
-43 104 -8 20 -23 30 -57 39 -25 7 -49 15 -55 18 -5 3 -12 6 -15 7 -3 0 -18 6
-33 12 -16 7 -34 12 -41 12 -7 0 -16 3 -20 8 -4 4 -11 7 -14 8 -4 0 -25 6 -47
12 -22 6 -44 12 -50 13 -5 0 -17 5 -26 10 -9 4 -27 10 -40 13 -13 2 -69 15
-124 29 -55 14 -118 28 -140 33 -22 4 -46 8 -53 10 -8 1 -46 8 -85 14 -40 6
-83 14 -97 17 -14 3 -43 7 -65 8 -22 2 -40 4 -40 5 0 3 -208 22 -275 24 -30 1
-61 5 -68 9 -6 5 -12 5 -12 0 0 -4 -18 -8 -40 -8 -22 0 -40 2 -40 5 0 3 -16 5
-35 5 -19 0 -35 -4 -35 -10 0 -7 -3 -7 -8 0 -8 11 -102 14 -102 4 0 -9 -20 -6
-36 4 -6 3 -14 4 -17 1z m-230 -757 l1 -324 -27 -1 c-14 0 -28 -1 -31 -2 -3
-1 -27 -3 -55 -5 -60 -5 -159 -15 -200 -20 -16 -2 -50 -6 -75 -9 -25 -3 -58
-8 -75 -11 -16 -3 -46 -8 -65 -11 -19 -3 -46 -8 -60 -11 -14 -2 -33 -5 -42 -6
-10 -1 -18 -5 -18 -10 0 -4 -4 -5 -10 -2 -5 3 -29 1 -52 -6 -55 -14 -78 -20
-103 -23 -11 -2 -20 -4 -20 -5 0 -2 -7 -4 -15 -6 -17 -3 -96 -24 -124 -32 -16
-4 -18 -1 -13 19 4 14 9 43 13 64 8 48 12 69 14 69 1 0 3 7 5 15 2 8 6 26 9
40 3 14 8 36 11 50 4 14 7 32 8 40 1 8 5 17 9 20 4 3 9 17 11 30 2 14 9 38 15
53 7 16 12 35 12 43 0 8 4 14 8 14 4 0 9 9 10 20 4 43 6 50 12 50 4 0 10 12
13 28 8 39 36 67 82 83 22 7 43 12 48 11 4 -1 7 3 7 10 0 6 3 8 7 5 3 -4 12
-2 20 4 7 6 13 8 13 4 0 -4 7 -2 15 5 8 7 15 10 15 7 0 -3 25 3 56 14 30 11
59 17 64 14 4 -3 10 -1 12 4 1 5 19 12 39 15 20 3 48 10 63 16 15 5 30 9 34 8
4 -1 21 1 37 5 74 18 145 30 178 31 15 1 27 4 27 8 0 3 7 5 16 4 9 -1 33 0 53
4 20 4 39 5 42 4 3 -2 6 -149 6 -327z m1719 -1579 c-4 -13 -8 -32 -10 -43 -7
-38 -35 -160 -45 -192 -5 -18 -7 -33 -4 -33 3 0 0 -7 -7 -15 -7 -8 -9 -15 -6
-15 4 0 4 -6 -1 -12 -4 -7 -9 -20 -11 -28 -4 -19 -10 -43 -12 -50 -1 -3 -2 -8
-1 -12 0 -5 -3 -8 -7 -8 -4 0 -8 -9 -9 -20 -1 -11 -9 -34 -17 -51 -9 -18 -13
-35 -11 -39 3 -5 2 -10 -2 -12 -5 -1 -17 -20 -27 -41 -11 -21 -25 -36 -32 -33
-6 2 -15 1 -20 -4 -12 -11 -184 -71 -184 -64 0 3 -6 2 -12 -3 -13 -8 -33 -13
-55 -15 -7 -1 -13 -4 -13 -8 0 -4 -6 -7 -12 -7 -45 -3 -68 -8 -68 -16 0 -4 -6
-7 -12 -6 -7 1 -33 -2 -58 -7 -25 -4 -48 -7 -52 -6 -5 1 -8 -2 -8 -6 0 -4 -8
-8 -17 -8 -10 0 -38 -4 -63 -8 -25 -4 -54 -9 -65 -10 -11 -1 -24 -4 -30 -7 -5
-3 -20 -4 -32 -3 -13 0 -23 -3 -23 -8 0 -5 -8 -4 -18 1 -13 7 -23 6 -30 -1 -9
-9 -12 69 -12 320 l0 332 33 1 c57 2 197 14 277 25 14 1 48 6 75 9 51 6 90 12
90 15 0 1 16 3 35 6 19 2 49 6 65 9 41 8 86 16 112 20 13 2 26 6 31 8 4 3 26
8 48 11 22 4 71 15 109 26 37 11 72 17 76 14 5 -3 9 0 9 5 0 6 7 11 16 11 12
0 15 -6 10 -22z"/>
</g>
</svg>
